<?xml version="1.0" standalone="no"?>
<!DOCTYPE svg PUBLIC "-//W3C//DTD SVG 20010904//EN"
 "http://www.w3.org/TR/2001/REC-SVG-20010904/DTD/svg10.dtd">
<svg version="1.0" xmlns="http://www.w3.org/2000/svg"
 width="128.000000pt" height="128.000000pt" viewBox="0 0 128.000000 128.000000"
 preserveAspectRatio="xMidYMid meet">

<g transform="translate(0.000000,128.000000) scale(0.100000,-0.100000)"
fill="#000000" stroke="none">
<path d="M0 640 l0 -640 640 0 640 0 0 640 0 640 -640 0 -640 0 0 -640z m717
331 c47 -22 91 -80 95 -126 3 -33 1 -35 -37 -35 -20 0 -28 8 -41 40 -17 43
-55 70 -96 70 -38 0 -85 -35 -98 -74 -8 -24 -18 -36 -30 -36 -10 0 -25 -3 -34
-6 -22 -8 -21 30 3 81 43 94 141 130 238 86z m113 -200 l65 -16 3 -75 c5 -120
-42 -226 -142 -318 -25 -23 -62 -50 -82 -59 -34 -17 -37 -17 -79 6 -61 32
-151 129 -180 194 -30 64 -47 151 -43 209 3 41 4 42 53 55 118 31 289 33 405
4z"/>
<path d="M597 682 c-22 -24 -22 -60 -1 -84 16 -17 15 -19 -8 -38 -14 -11 -28
-31 -30 -45 l-5 -25 83 0 c78 0 84 1 84 20 0 12 -12 32 -26 47 -23 23 -24 27
-10 42 23 25 20 67 -6 85 -30 21 -61 20 -81 -2z"/>
</g>
</svg>
